<?xml version="1.0" standalone="no"?>
<!DOCTYPE svg PUBLIC "-//W3C//DTD SVG 20010904//EN"
 "http://www.w3.org/TR/2001/REC-SVG-20010904/DTD/svg10.dtd">
<svg xmlns="http://www.w3.org/2000/svg">
  <symbol id="default" viewBox="0 0 18 18">
    <circle cx="9" cy="9" r="5"/>
  </symbol>

  <symbol id="mySymbol" viewBox="0 0 18 18">
    <path d="M0 0h9v3H0zM0 7h18v3H0zM0 14h18v3H0zM15 3l3-3h-6"/>
  </symbol>


<g transform="translate(0.000000,1920.000000) scale(0.100000,-0.100000)"
fill="#000000" stroke="none">
<path d="M5540 12052 c-23 -12 -58 -52 -103 -118 -831 -1207 -843 -2785 -32
-4009 111 -166 132 -183 217 -172 78 10 123 66 122 149 0 40 -9 60 -66 145
-384 581 -578 1206 -578 1863 0 645 188 1259 558 1825 101 154 112 198 69 264
-44 66 -120 88 -187 53z"/>
<path d="M13531 12047 c-45 -23 -66 -63 -66 -126 0 -55 3 -63 76 -172 132
-199 210 -340 294 -533 392 -900 363 -1890 -82 -2781 -73 -147 -104 -200 -214
-370 -91 -142 -99 -168 -69 -230 39 -81 140 -108 214 -60 60 40 278 397 384
630 241 529 344 1033 329 1604 -15 539 -133 1013 -371 1489 -119 239 -286 500
-345 539 -38 26 -110 31 -150 10z"/>
<path d="M9368 11689 c-99 -13 -240 -46 -343 -80 -127 -42 -353 -157 -465
-237 -107 -76 -287 -245 -366 -343 -170 -213 -301 -487 -354 -741 -37 -177
-40 -258 -40 -1085 l0 -811 -52 -17 c-153 -50 -294 -169 -361 -306 -60 -122
-69 -186 -65 -464 3 -220 5 -244 24 -286 30 -65 86 -123 147 -153 l51 -26
2050 0 c1985 0 2052 1 2092 19 59 27 121 86 152 145 l27 51 0 285 c0 283 0
285 -26 352 -72 186 -208 319 -385 378 l-64 22 0 831 c0 897 -2 929 -55 1139
-158 624 -665 1128 -1293 1287 -186 47 -481 65 -674 40z m547 -307 c209 -45
433 -145 595 -266 47 -35 130 -110 185 -167 194 -201 316 -426 388 -718 20
-84 21 -111 24 -958 l4 -873 -1501 0 -1501 0 4 868 3 867 26 105 c45 182 108
329 205 480 237 365 606 602 1052 675 120 20 395 13 516 -13z m1498 -3301 c69
-34 132 -101 156 -166 19 -50 21 -78 21 -270 l0 -215 -1981 0 -1980 0 3 228
c3 211 5 230 25 272 40 81 124 150 208 171 17 4 811 6 1765 6 l1735 -2 48 -24z"/>
<path d="M9113 11235 c-340 -131 -612 -374 -771 -691 -85 -169 -136 -360 -147
-554 -5 -90 -4 -110 12 -140 38 -73 123 -100 200 -63 48 23 71 64 77 142 28
317 118 531 313 741 105 114 297 238 440 284 111 37 157 142 102 233 -46 74
-119 89 -226 48z"/>
<path d="M6104 11440 c-49 -20 -172 -205 -279 -419 -319 -642 -349 -1356 -84
-2023 77 -194 256 -514 323 -577 39 -37 112 -40 167 -8 90 53 105 141 42 243
-20 32 -58 95 -85 139 -143 231 -241 495 -293 785 -22 124 -31 436 -16 566 39
342 169 703 358 994 65 101 68 108 68 167 0 52 -4 66 -25 88 -44 48 -120 68
-176 45z"/>
<path d="M12981 11422 c-43 -22 -71 -74 -71 -133 0 -40 9 -59 65 -145 98 -148
215 -388 267 -549 79 -240 108 -426 108 -682 0 -438 -122 -845 -364 -1213 -66
-100 -76 -121 -76 -160 0 -121 108 -186 212 -127 31 17 61 52 124 147 438 658
522 1510 223 2263 -54 136 -173 366 -251 483 -48 74 -71 98 -103 114 -51 25
-90 25 -134 2z"/>
<path d="M6813 10979 c-45 -13 -79 -59 -144 -194 -172 -360 -237 -729 -194
-1100 30 -259 100 -480 219 -699 52 -95 95 -135 153 -143 87 -11 143 31 158
117 6 36 -1 55 -74 202 -111 224 -153 359 -180 578 -39 307 34 657 196 945 63
114 74 163 48 218 -29 62 -112 97 -182 76z"/>
<path d="M12264 10971 c-51 -22 -91 -111 -75 -167 5 -16 31 -70 59 -119 145
-258 211 -537 199 -839 -12 -272 -79 -500 -232 -775 -38 -69 -43 -103 -21
-155 21 -51 60 -76 118 -76 92 0 123 29 201 185 239 481 282 1008 121 1505
-49 151 -166 383 -210 417 -38 29 -120 41 -160 24z"/>
</g>
</svg>
