<svg xmlns="http://www.w3.org/2000/svg">

	<symbol id="default" viewBox="0 0 990 990" version="1.1" xmlns="http://www.w3.org/2000/svg" x="0px" y="0px" style="enable-background:new 0 0 336 235.2;" width="990px" height="990px" xmlns:xlink="http://www.w3.org/1999/xlink">
		<rect id="ee-background" x="0" y="0" width="990" height="990" style="fill: white; fill-opacity: 0; pointer-events: none;" />
		<defs>
			<path d="M374.25 343.75C374.25 404.08 325.33 452.99 265 452.99C204.67 452.99 155.75 404.08 155.75 343.75C155.75 283.42 204.67 234.51 265 234.51C325.33 234.51 374.25 283.42 374.25 343.75Z" id="g2I3SdB4Zx" />
		</defs>
		<g transform="matrix(1.8490567207336426, 0, 0, 1.8490567207336426, 3.1913909912109375, 10.21279525756836)">
			<g>
				<g>
					<g>
						<use opacity="1" fill="#fff" xlink:href="#g2I3SdB4Zx" />
						<g>
							<use opacity="1" fill-opacity="0" stroke="#000000" stroke-width="1" stroke-opacity="0" xlink:href="#g2I3SdB4Zx" />
						</g>
					</g>
					<g>
						<use opacity="1" fill="#fff" fill-opacity="1" xlink:href="#aLrH3giDy" />
						<g>
							<use opacity="1" fill-opacity="0" stroke="#000000" stroke-width="1" stroke-opacity="0" xlink:href="#aLrH3giDy" />
						</g>
					</g>
				</g>
			</g>
		</g>
	</symbol>

	<symbol id="count-1" viewBox="0 0 990 990" version="1.1" xmlns="http://www.w3.org/2000/svg" x="0px" y="0px" style="enable-background:new 0 0 336 235.2;" width="990px" height="990px" xmlns:xlink="http://www.w3.org/1999/xlink">
		<rect id="ee-background" x="0" y="0" width="990" height="990" style="fill: white; fill-opacity: 0; pointer-events: none;" />
		<defs>
			<path d="M374.25 343.75C374.25 404.08 325.33 452.99 265 452.99C204.67 452.99 155.75 404.08 155.75 343.75C155.75 283.42 204.67 234.51 265 234.51C325.33 234.51 374.25 283.42 374.25 343.75Z" id="g2I3SdB4Zx" />
		</defs>
		<g transform="matrix(1.8490567207336426, 0, 0, 1.8490567207336426, 3.1913909912109375, 10.21279525756836)">
			<g>
				<g>
					<g>
						<use opacity="1" fill="#fff" xlink:href="#g2I3SdB4Zx" />
						<g>
							<use opacity="1" fill-opacity="0" stroke="#000000" stroke-width="1" stroke-opacity="0" xlink:href="#g2I3SdB4Zx" />
						</g>
					</g>
					<g>
						<use opacity="1" fill="#fff" fill-opacity="1" xlink:href="#aLrH3giDy" />
						<g>
							<use opacity="1" fill-opacity="0" stroke="#000000" stroke-width="1" stroke-opacity="0" xlink:href="#aLrH3giDy" />
						</g>
					</g>
				</g>
			</g>
		</g>
		<g transform="matrix(5.704533100128174, 0, 0, 5.704533100128174, -3015.525390625, -261.5286560058594)">
			<g id="g-1" transform="matrix(1, 0, 0, 1, 0, 0)">
				<g id="g-2">
					<path class="st0" d="M652,46c27.6,0,50,22.4,50,50s-22.4,50-50,50s-50-22.4-50-50S624.4,46,652,46z" style="fill: #e67e22;" />
				</g>
			</g>
		</g>
		<path d="M 758.2614135742188 208 L 754.6414184570312 208 L 754.6414184570312 198.08999633789062 L 754.6814575195312 196.4600067138672 L 754.741455078125 194.67999267578125 C 754.134765625 195.27999877929688 753.7147827148438 195.67333984375 753.4814453125 195.86000061035156 L 751.5114135742188 197.44000244140625 L 749.7714233398438 195.25999450683594 L 755.2914428710938 190.8699951171875 L 758.2614135742188 190.8699951171875 L 758.2614135742188 208 Z" transform="matrix(19.548702239990234, 0, 0, 19.548702239990234, -14068.984375, -3620.872802734375)" style="fill: #000; white-space: pre; color: #000;" />
	</symbol>

	<symbol id="count-2" viewBox="0 0 990 990" version="1.1" xmlns="http://www.w3.org/2000/svg" x="0px" y="0px" style="enable-background:new 0 0 336 235.2;" width="990px" height="990px" xmlns:xlink="http://www.w3.org/1999/xlink">
		<rect id="ee-background" x="0" y="0" width="990" height="990" style="fill: white; fill-opacity: 0; pointer-events: none;" />
		<defs>
			<path d="M374.25 343.75C374.25 404.08 325.33 452.99 265 452.99C204.67 452.99 155.75 404.08 155.75 343.75C155.75 283.42 204.67 234.51 265 234.51C325.33 234.51 374.25 283.42 374.25 343.75Z" id="g2I3SdB4Zx" />
		</defs>
		<g transform="matrix(1.8490567207336426, 0, 0, 1.8490567207336426, 3.1913909912109375, 10.21279525756836)">
			<g>
				<g>
					<g>
						<use opacity="1" fill="#fff" xlink:href="#g2I3SdB4Zx" />
						<g>
							<use opacity="1" fill-opacity="0" stroke="#000000" stroke-width="1" stroke-opacity="0" xlink:href="#g2I3SdB4Zx" />
						</g>
					</g>
					<g>
						<use opacity="1" fill="#fff" fill-opacity="1" xlink:href="#aLrH3giDy" />
						<g>
							<use opacity="1" fill-opacity="0" stroke="#000000" stroke-width="1" stroke-opacity="0" xlink:href="#aLrH3giDy" />
						</g>
					</g>
				</g>
			</g>
		</g>
		<g transform="matrix(5.704533100128174, 0, 0, 5.704533100128174, -3015.525390625, -261.5286560058594)">
			<g id="g-1" transform="matrix(1, 0, 0, 1, 0, 0)">
				<g id="g-2">
					<path class="st0" d="M652,46c27.6,0,50,22.4,50,50s-22.4,50-50,50s-50-22.4-50-50S624.4,46,652,46z" style="fill: #e67e22;" />
				</g>
			</g>
		</g>
		<path d="M 493.36578369140625 274 L 481.3857727050781 274 L 481.3857727050781 271.4800109863281 L 485.685791015625 267.1300048828125 C 486.9591064453125 265.8299865722656 487.7924499511719 264.9266662597656 488.185791015625 264.4200134277344 C 488.57244873046875 263.913330078125 488.8524475097656 263.4466552734375 489.0257873535156 263.0199890136719 C 489.1991271972656 262.586669921875 489.2857666015625 262.1400146484375 489.2857666015625 261.67999267578125 C 489.2857666015625 260.99334716796875 489.0957946777344 260.48333740234375 488.7157897949219 260.1499938964844 C 488.3357849121094 259.80999755859375 487.8291015625 259.6400146484375 487.1957702636719 259.6400146484375 C 486.5357666015625 259.6400146484375 485.8924560546875 259.7933349609375 485.2657775878906 260.1000061035156 C 484.63909912109375 260.40667724609375 483.98577880859375 260.8399963378906 483.3057861328125 261.3999938964844 L 481.3357849121094 259.07000732421875 C 482.18243408203125 258.3500061035156 482.8824462890625 257.84332275390625 483.435791015625 257.54998779296875 C 483.9891052246094 257.25 484.5957946777344 257.0199890136719 485.2557678222656 256.8599853515625 C 485.90911865234375 256.70001220703125 486.6424560546875 256.6199951171875 487.4557800292969 256.6199951171875 C 488.52911376953125 256.6199951171875 489.47576904296875 256.8166809082031 490.2957763671875 257.2099914550781 C 491.11578369140625 257.5966796875 491.75244140625 258.1433410644531 492.2057800292969 258.8500061035156 C 492.65911865234375 259.54998779296875 492.8857727050781 260.35333251953125 492.8857727050781 261.260009765625 C 492.8857727050781 262.0533447265625 492.74578857421875 262.7933349609375 492.4657897949219 263.4800109863281 C 492.19244384765625 264.17333984375 491.762451171875 264.8833312988281 491.17578125 265.6099853515625 C 490.5957946777344 266.336669921875 489.57244873046875 267.3699951171875 488.10577392578125 268.7099914550781 L 485.8957824707031 270.7900085449219 L 485.8957824707031 270.95001220703125 L 493.36578369140625 270.95001220703125 L 493.36578369140625 274 Z" transform="matrix(19.571218490600586, 0, 0, 19.571218490600586, -8833.083984375, -4914.884765625)" style="fill: #000; white-space: pre; color: rgb(51, 51, 51);" />
	</symbol>

	<symbol id="count-3" viewBox="0 0 990 990" version="1.1" xmlns="http://www.w3.org/2000/svg" x="0px" y="0px" style="enable-background:new 0 0 336 235.2;" width="990px" height="990px" xmlns:xlink="http://www.w3.org/1999/xlink">
		<rect id="ee-background" x="0" y="0" width="990" height="990" style="fill: white; fill-opacity: 0; pointer-events: none;" />
		<defs>
			<path d="M374.25 343.75C374.25 404.08 325.33 452.99 265 452.99C204.67 452.99 155.75 404.08 155.75 343.75C155.75 283.42 204.67 234.51 265 234.51C325.33 234.51 374.25 283.42 374.25 343.75Z" id="g2I3SdB4Zx" />
		</defs>
		<g transform="matrix(1.8490567207336426, 0, 0, 1.8490567207336426, 3.1913909912109375, 10.21279525756836)">
			<g>
				<g>
					<g>
						<use opacity="1" fill="#fff" xlink:href="#g2I3SdB4Zx" />
						<g>
							<use opacity="1" fill-opacity="0" stroke="#000000" stroke-width="1" stroke-opacity="0" xlink:href="#g2I3SdB4Zx" />
						</g>
					</g>
					<g>
						<use opacity="1" fill="#fff" fill-opacity="1" xlink:href="#aLrH3giDy" />
						<g>
							<use opacity="1" fill-opacity="0" stroke="#000000" stroke-width="1" stroke-opacity="0" xlink:href="#aLrH3giDy" />
						</g>
					</g>
				</g>
			</g>
		</g>
		<g transform="matrix(5.704533100128174, 0, 0, 5.704533100128174, -3015.525390625, -261.5286560058594)">
			<g id="g-1" transform="matrix(1, 0, 0, 1, 0, 0)">
				<g id="g-2">
					<path class="st0" d="M652,46c27.6,0,50,22.4,50,50s-22.4,50-50,50s-50-22.4-50-50S624.4,46,652,46z" style="fill: #e67e22;" />
				</g>
			</g>
		</g>
		<path d="M 492.6957702636719 260.70001220703125 C 492.6957702636719 261.76666259765625 492.3724365234375 262.6766662597656 491.72576904296875 263.42999267578125 C 491.07244873046875 264.1766662597656 490.1624450683594 264.6933288574219 488.99578857421875 264.9800109863281 L 488.99578857421875 265.04998779296875 C 490.37579345703125 265.2166748046875 491.4224548339844 265.63665771484375 492.1357727050781 266.30999755859375 C 492.8424377441406 266.9766540527344 493.1957702636719 267.8766784667969 493.1957702636719 269.010009765625 C 493.1957702636719 270.65667724609375 492.59912109375 271.94000244140625 491.4057922363281 272.8599853515625 C 490.21246337890625 273.7733459472656 488.5057678222656 274.2300109863281 486.2857666015625 274.2300109863281 C 484.42578125 274.2300109863281 482.7757873535156 273.92333984375 481.3357849121094 273.30999755859375 L 481.3357849121094 270.2300109863281 C 482.00244140625 270.5633239746094 482.73577880859375 270.836669921875 483.5357666015625 271.04998779296875 C 484.3291015625 271.25665283203125 485.11578369140625 271.3599853515625 485.8957824707031 271.3599853515625 C 487.0957946777344 271.3599853515625 487.9791259765625 271.15667724609375 488.5457763671875 270.75 C 489.1191101074219 270.34332275390625 489.4057922363281 269.6933288574219 489.4057922363281 268.79998779296875 C 489.4057922363281 267.99334716796875 489.0757751464844 267.42333984375 488.415771484375 267.0899963378906 C 487.762451171875 266.75 486.7157897949219 266.5799865722656 485.2757873535156 266.5799865722656 L 483.97576904296875 266.5799865722656 L 483.97576904296875 263.79998779296875 L 485.3057861328125 263.79998779296875 C 486.6324462890625 263.79998779296875 487.6024475097656 263.6266784667969 488.2157897949219 263.2799987792969 C 488.8291015625 262.9333190917969 489.1357727050781 262.3399963378906 489.1357727050781 261.5 C 489.1357727050781 260.20001220703125 488.32244873046875 259.54998779296875 486.6957702636719 259.54998779296875 C 486.1357727050781 259.54998779296875 485.56243896484375 259.6433410644531 484.97576904296875 259.8299865722656 C 484.3957824707031 260.01666259765625 483.7491149902344 260.3399963378906 483.0357666015625 260.79998779296875 L 481.36578369140625 258.30999755859375 C 482.92578125 257.1833190917969 484.78912353515625 256.6199951171875 486.9557800292969 256.6199951171875 C 488.7291259765625 256.6199951171875 490.1291198730469 256.9800109863281 491.1557922363281 257.70001220703125 C 492.18243408203125 258.4200134277344 492.6957702636719 259.4200134277344 492.6957702636719 260.70001220703125 Z" transform="matrix(19.571218490600586, 0, 0, 19.571218490600586, -8824.083984375, -4913.884765625)" style="fill: #000; white-space: pre; color: rgb(51, 51, 51);" />
	</symbol>

	<symbol id="count-4" viewBox="0 0 990 990" version="1.1" xmlns="http://www.w3.org/2000/svg" x="0px" y="0px" style="enable-background:new 0 0 336 235.2;" width="990px" height="990px" xmlns:xlink="http://www.w3.org/1999/xlink">
		<rect id="ee-background" x="0" y="0" width="990" height="990" style="fill: white; fill-opacity: 0; pointer-events: none;" />
		<defs>
			<path d="M374.25 343.75C374.25 404.08 325.33 452.99 265 452.99C204.67 452.99 155.75 404.08 155.75 343.75C155.75 283.42 204.67 234.51 265 234.51C325.33 234.51 374.25 283.42 374.25 343.75Z" id="g2I3SdB4Zx" />
		</defs>
		<g transform="matrix(1.8490567207336426, 0, 0, 1.8490567207336426, 3.1913909912109375, 10.21279525756836)">
			<g>
				<g>
					<g>
						<use opacity="1" fill="#fff" xlink:href="#g2I3SdB4Zx" />
						<g>
							<use opacity="1" fill-opacity="0" stroke="#000000" stroke-width="1" stroke-opacity="0" xlink:href="#g2I3SdB4Zx" />
						</g>
					</g>
					<g>
						<use opacity="1" fill="#fff" fill-opacity="1" xlink:href="#aLrH3giDy" />
						<g>
							<use opacity="1" fill-opacity="0" stroke="#000000" stroke-width="1" stroke-opacity="0" xlink:href="#aLrH3giDy" />
						</g>
					</g>
				</g>
			</g>
		</g>
		<g transform="matrix(5.704533100128174, 0, 0, 5.704533100128174, -3015.525390625, -261.5286560058594)">
			<g id="g-1" transform="matrix(1, 0, 0, 1, 0, 0)">
				<g id="g-2">
					<path class="st0" d="M652,46c27.6,0,50,22.4,50,50s-22.4,50-50,50s-50-22.4-50-50S624.4,46,652,46z" style="fill: #e67e22;" />
				</g>
			</g>
		</g>
		<path d="M 493.74578857421875 270.45001220703125 L 491.685791015625 270.45001220703125 L 491.685791015625 274 L 488.1457824707031 274 L 488.1457824707031 270.45001220703125 L 480.8357849121094 270.45001220703125 L 480.8357849121094 267.92999267578125 L 488.3457946777344 256.8699951171875 L 491.685791015625 256.8699951171875 L 491.685791015625 267.6400146484375 L 493.74578857421875 267.6400146484375 L 493.74578857421875 270.45001220703125 M 488.1457824707031 267.6400146484375 L 488.1457824707031 264.7300109863281 C 488.1457824707031 264.24334716796875 488.165771484375 263.5400085449219 488.2057800292969 262.6199951171875 C 488.24578857421875 261.70001220703125 488.27911376953125 261.1666564941406 488.3057861328125 261.0199890136719 L 488.2057800292969 261.0199890136719 C 487.91912841796875 261.6600036621094 487.57244873046875 262.2833251953125 487.165771484375 262.8900146484375 L 484.0257873535156 267.6400146484375 L 488.1457824707031 267.6400146484375 Z" transform="matrix(19.571218490600586, 0, 0, 19.571218490600586, -8855.083984375, -4919.884765625)" style="fill: #000; white-space: pre; color: rgb(51, 51, 51);" />
	</symbol>

	<symbol id="count-5" viewBox="0 0 990 990" version="1.1" xmlns="http://www.w3.org/2000/svg" x="0px" y="0px" style="enable-background:new 0 0 336 235.2;" width="990px" height="990px" xmlns:xlink="http://www.w3.org/1999/xlink">
		<rect id="ee-background" x="0" y="0" width="990" height="990" style="fill: white; fill-opacity: 0; pointer-events: none;" />
		<defs>
			<path d="M374.25 343.75C374.25 404.08 325.33 452.99 265 452.99C204.67 452.99 155.75 404.08 155.75 343.75C155.75 283.42 204.67 234.51 265 234.51C325.33 234.51 374.25 283.42 374.25 343.75Z" id="g2I3SdB4Zx" />
		</defs>
		<g transform="matrix(1.8490567207336426, 0, 0, 1.8490567207336426, 3.1913909912109375, 10.21279525756836)">
			<g>
				<g>
					<g>
						<use opacity="1" fill="#fff" xlink:href="#g2I3SdB4Zx" />
						<g>
							<use opacity="1" fill-opacity="0" stroke="#000000" stroke-width="1" stroke-opacity="0" xlink:href="#g2I3SdB4Zx" />
						</g>
					</g>
					<g>
						<use opacity="1" fill="#fff" fill-opacity="1" xlink:href="#aLrH3giDy" />
						<g>
							<use opacity="1" fill-opacity="0" stroke="#000000" stroke-width="1" stroke-opacity="0" xlink:href="#aLrH3giDy" />
						</g>
					</g>
				</g>
			</g>
		</g>
		<g transform="matrix(5.704533100128174, 0, 0, 5.704533100128174, -3015.525390625, -261.5286560058594)">
			<g id="g-1" transform="matrix(1, 0, 0, 1, 0, 0)">
				<g id="g-2">
					<path class="st0" d="M652,46c27.6,0,50,22.4,50,50s-22.4,50-50,50s-50-22.4-50-50S624.4,46,652,46z" style="fill: #e67e22;" />
				</g>
			</g>
		</g>
		<path d="M 487.62579345703125 263.04998779296875 C 489.27911376953125 263.04998779296875 490.5957946777344 263.51666259765625 491.5757751464844 264.45001220703125 C 492.5557861328125 265.3766784667969 493.0457763671875 266.6499938964844 493.0457763671875 268.2699890136719 C 493.0457763671875 270.1833190917969 492.4557800292969 271.65667724609375 491.2757873535156 272.69000244140625 C 490.0957946777344 273.7166748046875 488.40911865234375 274.2300109863281 486.2157897949219 274.2300109863281 C 484.3091125488281 274.2300109863281 482.76910400390625 273.92333984375 481.5957946777344 273.30999755859375 L 481.5957946777344 270.17999267578125 C 482.2157897949219 270.50665283203125 482.935791015625 270.7733459472656 483.7557678222656 270.9800109863281 C 484.5757751464844 271.1866760253906 485.3524475097656 271.2900085449219 486.0857849121094 271.2900085449219 C 488.2991027832031 271.2900085449219 489.4057922363281 270.3833312988281 489.4057922363281 268.57000732421875 C 489.4057922363281 266.84332275390625 488.2591247558594 265.9800109863281 485.9657897949219 265.9800109863281 C 485.5524597167969 265.9800109863281 485.0957946777344 266.0233459472656 484.5957946777344 266.1099853515625 C 484.0957946777344 266.19000244140625 483.6891174316406 266.27667236328125 483.37579345703125 266.3699951171875 L 481.935791015625 265.6000061035156 L 482.5857849121094 256.8699951171875 L 491.87579345703125 256.8699951171875 L 491.87579345703125 259.94000244140625 L 485.7557678222656 259.94000244140625 L 485.4457702636719 263.29998779296875 L 485.85577392578125 263.2200012207031 C 486.3291015625 263.1066589355469 486.91912841796875 263.04998779296875 487.62579345703125 263.04998779296875 Z" transform="matrix(19.571218490600586, 0, 0, 19.571218490600586, -8826.083984375, -4911.884765625)" style="fill: #000; white-space: pre; color: rgb(51, 51, 51);" />
	</symbol>

	<symbol id="count-6" viewBox="0 0 990 990" version="1.1" xmlns="http://www.w3.org/2000/svg" x="0px" y="0px" style="enable-background:new 0 0 336 235.2;" width="990px" height="990px" xmlns:xlink="http://www.w3.org/1999/xlink">
		<rect id="ee-background" x="0" y="0" width="990" height="990" style="fill: white; fill-opacity: 0; pointer-events: none;" />
		<defs>
			<path d="M374.25 343.75C374.25 404.08 325.33 452.99 265 452.99C204.67 452.99 155.75 404.08 155.75 343.75C155.75 283.42 204.67 234.51 265 234.51C325.33 234.51 374.25 283.42 374.25 343.75Z" id="g2I3SdB4Zx" />
		</defs>
		<g transform="matrix(1.8490567207336426, 0, 0, 1.8490567207336426, 3.1913909912109375, 10.21279525756836)">
			<g>
				<g>
					<g>
						<use opacity="1" fill="#fff" xlink:href="#g2I3SdB4Zx" />
						<g>
							<use opacity="1" fill-opacity="0" stroke="#000000" stroke-width="1" stroke-opacity="0" xlink:href="#g2I3SdB4Zx" />
						</g>
					</g>
					<g>
						<use opacity="1" fill="#fff" fill-opacity="1" xlink:href="#aLrH3giDy" />
						<g>
							<use opacity="1" fill-opacity="0" stroke="#000000" stroke-width="1" stroke-opacity="0" xlink:href="#aLrH3giDy" />
						</g>
					</g>
				</g>
			</g>
		</g>
		<g transform="matrix(5.704533100128174, 0, 0, 5.704533100128174, -3015.525390625, -261.5286560058594)">
			<g id="g-1" transform="matrix(1, 0, 0, 1, 0, 0)">
				<g id="g-2">
					<path class="st0" d="M652,46c27.6,0,50,22.4,50,50s-22.4,50-50,50s-50-22.4-50-50S624.4,46,652,46z" style="fill: #e67e22;" />
				</g>
			</g>
		</g>
		<path d="M 481.2657775878906 266.7200012207031 C 481.2657775878906 263.3333435058594 481.9824523925781 260.80999755859375 483.415771484375 259.1499938964844 C 484.84912109375 257.4966735839844 486.99578857421875 256.6700134277344 489.85577392578125 256.6700134277344 C 490.8357849121094 256.6700134277344 491.6024475097656 256.7266540527344 492.1557922363281 256.8399963378906 L 492.1557922363281 259.739990234375 C 491.46246337890625 259.5799865722656 490.7757873535156 259.5 490.0957946777344 259.5 C 488.84912109375 259.5 487.8357849121094 259.69000244140625 487.0557861328125 260.07000732421875 C 486.26910400390625 260.4433288574219 485.6791076660156 260.9966735839844 485.2857666015625 261.7300109863281 C 484.89910888671875 262.46331787109375 484.66912841796875 263.50665283203125 484.5957946777344 264.8599853515625 L 484.74578857421875 264.8599853515625 C 485.51910400390625 263.5333251953125 486.7591247558594 262.8699951171875 488.4657897949219 262.8699951171875 C 489.9991149902344 262.8699951171875 491.1991271972656 263.3500061035156 492.0657958984375 264.30999755859375 C 492.93243408203125 265.2699890136719 493.36578369140625 266.5966796875 493.36578369140625 268.2900085449219 C 493.36578369140625 270.1233215332031 492.84912109375 271.57000732421875 491.8157958984375 272.6300048828125 C 490.7824401855469 273.6966552734375 489.3524475097656 274.2300109863281 487.5257873535156 274.2300109863281 C 486.2591247558594 274.2300109863281 485.1557922363281 273.94000244140625 484.2157897949219 273.3599853515625 C 483.2757873535156 272.7733459472656 482.5491027832031 271.9166564941406 482.0357666015625 270.7900085449219 C 481.5224609375 269.663330078125 481.2657775878906 268.3066711425781 481.2657775878906 266.7200012207031 M 487.4557800292969 271.3399963378906 C 488.2291259765625 271.3399963378906 488.82244873046875 271.0799865722656 489.23577880859375 270.55999755859375 C 489.64910888671875 270.0400085449219 489.85577392578125 269.29998779296875 489.85577392578125 268.3399963378906 C 489.85577392578125 267.50665283203125 489.6624450683594 266.8500061035156 489.2757873535156 266.3699951171875 C 488.88909912109375 265.8833312988281 488.3057861328125 265.6400146484375 487.5257873535156 265.6400146484375 C 486.7924499511719 265.6400146484375 486.165771484375 265.8800048828125 485.6457824707031 266.3599853515625 C 485.12579345703125 266.8333435058594 484.86578369140625 267.38665771484375 484.86578369140625 268.0199890136719 C 484.86578369140625 268.9533386230469 485.1091003417969 269.739990234375 485.5957946777344 270.3800048828125 C 486.089111328125 271.0199890136719 486.7091064453125 271.3399963378906 487.4557800292969 271.3399963378906 Z" transform="matrix(19.571218490600586, 0, 0, 19.571218490600586, -8846.083984375, -4911.884765625)" style="fill: #000; white-space: pre; color: rgb(51, 51, 51);" />
	</symbol>

	<symbol id="count-7" viewBox="0 0 990 990" version="1.1" xmlns="http://www.w3.org/2000/svg" x="0px" y="0px" style="enable-background:new 0 0 336 235.2;" width="990px" height="990px" xmlns:xlink="http://www.w3.org/1999/xlink">
		<rect id="ee-background" x="0" y="0" width="990" height="990" style="fill: white; fill-opacity: 0; pointer-events: none;" />
		<defs>
			<path d="M374.25 343.75C374.25 404.08 325.33 452.99 265 452.99C204.67 452.99 155.75 404.08 155.75 343.75C155.75 283.42 204.67 234.51 265 234.51C325.33 234.51 374.25 283.42 374.25 343.75Z" id="g2I3SdB4Zx" />
		</defs>
		<g transform="matrix(1.8490567207336426, 0, 0, 1.8490567207336426, 3.1913909912109375, 10.21279525756836)">
			<g>
				<g>
					<g>
						<use opacity="1" fill="#fff" xlink:href="#g2I3SdB4Zx" />
						<g>
							<use opacity="1" fill-opacity="0" stroke="#000000" stroke-width="1" stroke-opacity="0" xlink:href="#g2I3SdB4Zx" />
						</g>
					</g>
					<g>
						<use opacity="1" fill="#fff" fill-opacity="1" xlink:href="#aLrH3giDy" />
						<g>
							<use opacity="1" fill-opacity="0" stroke="#000000" stroke-width="1" stroke-opacity="0" xlink:href="#aLrH3giDy" />
						</g>
					</g>
				</g>
			</g>
		</g>
		<g transform="matrix(5.704533100128174, 0, 0, 5.704533100128174, -3015.525390625, -261.5286560058594)">
			<g id="g-1" transform="matrix(1, 0, 0, 1, 0, 0)">
				<g id="g-2">
					<path class="st0" d="M652,46c27.6,0,50,22.4,50,50s-22.4,50-50,50s-50-22.4-50-50S624.4,46,652,46z" style="fill: #e67e22;" />
				</g>
			</g>
		</g>
		<path d="M 483.0857849121094 274 L 489.5157775878906 259.94000244140625 L 481.0657958984375 259.94000244140625 L 481.0657958984375 256.8900146484375 L 493.36578369140625 256.8900146484375 L 493.36578369140625 259.1600036621094 L 486.8857727050781 274 L 483.0857849121094 274 Z" transform="matrix(19.571218490600586, 0, 0, 19.571218490600586, -8826.083984375, -4911.884765625)" style="fill: #000; white-space: pre; color: rgb(51, 51, 51);" />
	</symbol>

	<symbol id="count-8" viewBox="0 0 990 990" version="1.1" xmlns="http://www.w3.org/2000/svg" x="0px" y="0px" style="enable-background:new 0 0 336 235.2;" width="990px" height="990px" xmlns:xlink="http://www.w3.org/1999/xlink">
		<rect id="ee-background" x="0" y="0" width="990" height="990" style="fill: white; fill-opacity: 0; pointer-events: none;" />
		<defs>
			<path d="M374.25 343.75C374.25 404.08 325.33 452.99 265 452.99C204.67 452.99 155.75 404.08 155.75 343.75C155.75 283.42 204.67 234.51 265 234.51C325.33 234.51 374.25 283.42 374.25 343.75Z" id="g2I3SdB4Zx" />
		</defs>
		<g transform="matrix(1.8490567207336426, 0, 0, 1.8490567207336426, 3.1913909912109375, 10.21279525756836)">
			<g>
				<g>
					<g>
						<use opacity="1" fill="#fff" xlink:href="#g2I3SdB4Zx" />
						<g>
							<use opacity="1" fill-opacity="0" stroke="#000000" stroke-width="1" stroke-opacity="0" xlink:href="#g2I3SdB4Zx" />
						</g>
					</g>
					<g>
						<use opacity="1" fill="#fff" fill-opacity="1" xlink:href="#aLrH3giDy" />
						<g>
							<use opacity="1" fill-opacity="0" stroke="#000000" stroke-width="1" stroke-opacity="0" xlink:href="#aLrH3giDy" />
						</g>
					</g>
				</g>
			</g>
		</g>
		<g transform="matrix(5.704533100128174, 0, 0, 5.704533100128174, -3015.525390625, -261.5286560058594)">
			<g id="g-1" transform="matrix(1, 0, 0, 1, 0, 0)">
				<g id="g-2">
					<path class="st0" d="M652,46c27.6,0,50,22.4,50,50s-22.4,50-50,50s-50-22.4-50-50S624.4,46,652,46z" style="fill: #e67e22;" />
				</g>
			</g>
		</g>
		<path d="M 487.2957763671875 256.6400146484375 C 488.935791015625 256.6400146484375 490.2557678222656 257.0133361816406 491.2557678222656 257.760009765625 C 492.262451171875 258.50665283203125 492.7657775878906 259.5133361816406 492.7657775878906 260.7799987792969 C 492.7657775878906 261.6533203125 492.5224609375 262.4333190917969 492.0357666015625 263.1199951171875 C 491.5557861328125 263.79998779296875 490.7757873535156 264.4100036621094 489.6957702636719 264.95001220703125 C 490.97576904296875 265.63665771484375 491.8957824707031 266.35333251953125 492.4557800292969 267.1000061035156 C 493.0157775878906 267.8466796875 493.2957763671875 268.6666564941406 493.2957763671875 269.55999755859375 C 493.2957763671875 270.9666748046875 492.7424621582031 272.0966796875 491.6357727050781 272.95001220703125 C 490.5357666015625 273.8033447265625 489.089111328125 274.2300109863281 487.2957763671875 274.2300109863281 C 485.415771484375 274.2300109863281 483.94244384765625 273.8333435058594 482.87579345703125 273.0400085449219 C 481.8024597167969 272.239990234375 481.2657775878906 271.1099853515625 481.2657775878906 269.6499938964844 C 481.2657775878906 268.6766662597656 481.5257873535156 267.80999755859375 482.0457763671875 267.04998779296875 C 482.5657958984375 266.2900085449219 483.4024353027344 265.6233215332031 484.5557861328125 265.04998779296875 C 483.5757751464844 264.42999267578125 482.8724365234375 263.7699890136719 482.4457702636719 263.07000732421875 C 482.012451171875 262.36334228515625 481.7957763671875 261.59332275390625 481.7957763671875 260.760009765625 C 481.7957763671875 259.5333251953125 482.3024597167969 258.5400085449219 483.3157958984375 257.7799987792969 C 484.3357849121094 257.0199890136719 485.6624450683594 256.6400146484375 487.2957763671875 256.6400146484375 M 484.62579345703125 269.44000244140625 C 484.62579345703125 270.11334228515625 484.8591003417969 270.63665771484375 485.3257751464844 271.010009765625 C 485.7924499511719 271.3833312988281 486.43243408203125 271.57000732421875 487.24578857421875 271.57000732421875 C 488.1457824707031 271.57000732421875 488.8191223144531 271.3766784667969 489.2657775878906 270.989990234375 C 489.7057800292969 270.60333251953125 489.92578125 270.09332275390625 489.92578125 269.4599914550781 C 489.92578125 268.94000244140625 489.7057800292969 268.45001220703125 489.2657775878906 267.989990234375 C 488.8257751464844 267.53668212890625 488.1091003417969 267.0533447265625 487.11578369140625 266.5400085449219 C 485.4557800292969 267.29998779296875 484.62579345703125 268.26666259765625 484.62579345703125 269.44000244140625 M 487.2657775878906 259.2900085449219 C 486.6524353027344 259.2900085449219 486.1557922363281 259.45001220703125 485.7757873535156 259.7699890136719 C 485.3957824707031 260.0833435058594 485.2057800292969 260.50665283203125 485.2057800292969 261.0400085449219 C 485.2057800292969 261.50665283203125 485.35577392578125 261.9266662597656 485.6557922363281 262.29998779296875 C 485.9557800292969 262.67333984375 486.50244140625 263.0533447265625 487.2957763671875 263.44000244140625 C 488.06243896484375 263.0799865722656 488.5957946777344 262.71331787109375 488.8957824707031 262.3399963378906 C 489.20245361328125 261.9666748046875 489.35577392578125 261.5333251953125 489.35577392578125 261.0400085449219 C 489.35577392578125 260.5 489.15911865234375 260.0733337402344 488.7657775878906 259.760009765625 C 488.3791198730469 259.4466552734375 487.8791198730469 259.2900085449219 487.2657775878906 259.2900085449219 Z" transform="matrix(19.571218490600586, 0, 0, 19.571218490600586, -8831.083984375, -4911.884765625)" style="fill: #000; white-space: pre; color: rgb(51, 51, 51);" />
	</symbol>


	<symbol id="count-9" viewBox="0 0 990 990" version="1.1" xmlns="http://www.w3.org/2000/svg" x="0px" y="0px" style="enable-background:new 0 0 336 235.2;" width="990px" height="990px" xmlns:xlink="http://www.w3.org/1999/xlink">
		<rect id="ee-background" x="0" y="0" width="990" height="990" style="fill: white; fill-opacity: 0; pointer-events: none;" />
		<defs>
			<path d="M374.25 343.75C374.25 404.08 325.33 452.99 265 452.99C204.67 452.99 155.75 404.08 155.75 343.75C155.75 283.42 204.67 234.51 265 234.51C325.33 234.51 374.25 283.42 374.25 343.75Z" id="g2I3SdB4Zx" />
		</defs>
		<g transform="matrix(1.8490567207336426, 0, 0, 1.8490567207336426, 3.1913909912109375, 10.21279525756836)">
			<g>
				<g>
					<g>
						<use opacity="1" fill="#fff" xlink:href="#g2I3SdB4Zx" />
						<g>
							<use opacity="1" fill-opacity="0" stroke="#000000" stroke-width="1" stroke-opacity="0" xlink:href="#g2I3SdB4Zx" />
						</g>
					</g>
					<g>
						<use opacity="1" fill="#fff" fill-opacity="1" xlink:href="#aLrH3giDy" />
						<g>
							<use opacity="1" fill-opacity="0" stroke="#000000" stroke-width="1" stroke-opacity="0" xlink:href="#aLrH3giDy" />
						</g>
					</g>
				</g>
			</g>
		</g>
		<g transform="matrix(5.704533100128174, 0, 0, 5.704533100128174, -3015.525390625, -261.5286560058594)">
			<g id="g-1" transform="matrix(1, 0, 0, 1, 0, 0)">
				<g id="g-2">
					<path class="st0" d="M652,46c27.6,0,50,22.4,50,50s-22.4,50-50,50s-50-22.4-50-50S624.4,46,652,46z" style="fill: #e67e22;" />
				</g>
			</g>
		</g>
		<path d="M 493.2957763671875 264.17999267578125 C 493.2957763671875 267.5533447265625 492.58245849609375 270.0733337402344 491.1557922363281 271.739990234375 C 489.73577880859375 273.3999938964844 487.5857849121094 274.2300109863281 484.7057800292969 274.2300109863281 C 483.685791015625 274.2300109863281 482.915771484375 274.1766662597656 482.3957824707031 274.07000732421875 L 482.3957824707031 271.1600036621094 C 483.0491027832031 271.32666015625 483.73577880859375 271.4100036621094 484.4557800292969 271.4100036621094 C 485.66912841796875 271.4100036621094 486.665771484375 271.23333740234375 487.4457702636719 270.8800048828125 C 488.22576904296875 270.5199890136719 488.82244873046875 269.9599914550781 489.23577880859375 269.20001220703125 C 489.64910888671875 268.44000244140625 489.88909912109375 267.3900146484375 489.9557800292969 266.04998779296875 L 489.8157958984375 266.04998779296875 C 489.3624572753906 266.7900085449219 488.839111328125 267.3066711425781 488.24578857421875 267.6000061035156 C 487.6524353027344 267.8999938964844 486.90911865234375 268.04998779296875 486.0157775878906 268.04998779296875 C 484.5224609375 268.04998779296875 483.3457946777344 267.57000732421875 482.48577880859375 266.6099853515625 C 481.62579345703125 265.65667724609375 481.1957702636719 264.32666015625 481.1957702636719 262.6199951171875 C 481.1957702636719 260.78668212890625 481.7191162109375 259.336669921875 482.7657775878906 258.2699890136719 C 483.8057861328125 257.2033386230469 485.22576904296875 256.6700134277344 487.0257873535156 256.6700134277344 C 488.2924499511719 256.6700134277344 489.39910888671875 256.9666748046875 490.3457946777344 257.55999755859375 C 491.2924499511719 258.1533203125 492.0224609375 259.0133361816406 492.5357666015625 260.1400146484375 C 493.0424499511719 261.2733459472656 493.2957763671875 262.6199951171875 493.2957763671875 264.17999267578125 M 487.0957946777344 259.57000732421875 C 486.3424377441406 259.57000732421875 485.7557678222656 259.8299865722656 485.3357849121094 260.3500061035156 C 484.915771484375 260.86334228515625 484.7057800292969 261.60333251953125 484.7057800292969 262.57000732421875 C 484.7057800292969 263.4033203125 484.8957824707031 264.05999755859375 485.2757873535156 264.5400085449219 C 485.6624450683594 265.02667236328125 486.24578857421875 265.2699890136719 487.0257873535156 265.2699890136719 C 487.7591247558594 265.2699890136719 488.3857727050781 265.0299987792969 488.9057922363281 264.54998779296875 C 489.43243408203125 264.07000732421875 489.6957702636719 263.51666259765625 489.6957702636719 262.8900146484375 C 489.6957702636719 261.96331787109375 489.45245361328125 261.17999267578125 488.9657897949219 260.5400085449219 C 488.4724426269531 259.8933410644531 487.84912109375 259.57000732421875 487.0957946777344 259.57000732421875 Z" transform="matrix(19.571218490600586, 0, 0, 19.571218490600586, -8825.083984375, -4911.884765625)" style="fill: #000; white-space: pre; color: rgb(51, 51, 51);" />
	</symbol>

	<symbol id="count-9plus" viewBox="0 0 990 990" version="1.1" xmlns="http://www.w3.org/2000/svg" x="0px" y="0px" style="enable-background:new 0 0 336 235.2;" width="990px" height="990px" xmlns:xlink="http://www.w3.org/1999/xlink">
		<rect id="ee-background" x="0" y="0" width="990" height="990" style="fill: white; fill-opacity: 0; pointer-events: none;" />
		<defs>
			<path d="M374.25 343.75C374.25 404.08 325.33 452.99 265 452.99C204.67 452.99 155.75 404.08 155.75 343.75C155.75 283.42 204.67 234.51 265 234.51C325.33 234.51 374.25 283.42 374.25 343.75Z" id="g2I3SdB4Zx" />
		</defs>
		<g transform="matrix(1.8490567207336426, 0, 0, 1.8490567207336426, 3.1913909912109375, 10.21279525756836)">
			<g>
				<g>
					<g>
						<use opacity="1" fill="#fff" xlink:href="#g2I3SdB4Zx" />
						<g>
							<use opacity="1" fill-opacity="0" stroke="#000000" stroke-width="1" stroke-opacity="0" xlink:href="#g2I3SdB4Zx" />
						</g>
					</g>
					<g>
						<use opacity="1" fill="#fff" fill-opacity="1" xlink:href="#aLrH3giDy" />
						<g>
							<use opacity="1" fill-opacity="0" stroke="#000000" stroke-width="1" stroke-opacity="0" xlink:href="#aLrH3giDy" />
						</g>
					</g>
				</g>
			</g>
		</g>
		<g transform="matrix(5.704533100128174, 0, 0, 5.704533100128174, -3015.525390625, -261.5286560058594)">
			<g id="g-1" transform="matrix(1, 0, 0, 1, 0, 0)">
				<g id="g-2">
					<path class="st0" d="M652,46c27.6,0,50,22.4,50,50s-22.4,50-50,50s-50-22.4-50-50S624.4,46,652,46z" style="fill: #e67e22;" />
				</g>
			</g>
		</g>
		<path d="M 493.2957763671875 264.17999267578125 C 493.2957763671875 267.5533447265625 492.58245849609375 270.0733337402344 491.1557922363281 271.739990234375 C 489.73577880859375 273.3999938964844 487.5857849121094 274.2300109863281 484.7057800292969 274.2300109863281 C 483.685791015625 274.2300109863281 482.915771484375 274.1766662597656 482.3957824707031 274.07000732421875 L 482.3957824707031 271.1600036621094 C 483.0491027832031 271.32666015625 483.73577880859375 271.4100036621094 484.4557800292969 271.4100036621094 C 485.66912841796875 271.4100036621094 486.665771484375 271.23333740234375 487.4457702636719 270.8800048828125 C 488.22576904296875 270.5199890136719 488.82244873046875 269.9599914550781 489.23577880859375 269.20001220703125 C 489.64910888671875 268.44000244140625 489.88909912109375 267.3900146484375 489.9557800292969 266.04998779296875 L 489.8157958984375 266.04998779296875 C 489.3624572753906 266.7900085449219 488.839111328125 267.3066711425781 488.24578857421875 267.6000061035156 C 487.6524353027344 267.8999938964844 486.90911865234375 268.04998779296875 486.0157775878906 268.04998779296875 C 484.5224609375 268.04998779296875 483.3457946777344 267.57000732421875 482.48577880859375 266.6099853515625 C 481.62579345703125 265.65667724609375 481.1957702636719 264.32666015625 481.1957702636719 262.6199951171875 C 481.1957702636719 260.78668212890625 481.7191162109375 259.336669921875 482.7657775878906 258.2699890136719 C 483.8057861328125 257.2033386230469 485.22576904296875 256.6700134277344 487.0257873535156 256.6700134277344 C 488.2924499511719 256.6700134277344 489.39910888671875 256.9666748046875 490.3457946777344 257.55999755859375 C 491.2924499511719 258.1533203125 492.0224609375 259.0133361816406 492.5357666015625 260.1400146484375 C 493.0424499511719 261.2733459472656 493.2957763671875 262.6199951171875 493.2957763671875 264.17999267578125 M 487.0957946777344 259.57000732421875 C 486.3424377441406 259.57000732421875 485.7557678222656 259.8299865722656 485.3357849121094 260.3500061035156 C 484.915771484375 260.86334228515625 484.7057800292969 261.60333251953125 484.7057800292969 262.57000732421875 C 484.7057800292969 263.4033203125 484.8957824707031 264.05999755859375 485.2757873535156 264.5400085449219 C 485.6624450683594 265.02667236328125 486.24578857421875 265.2699890136719 487.0257873535156 265.2699890136719 C 487.7591247558594 265.2699890136719 488.3857727050781 265.0299987792969 488.9057922363281 264.54998779296875 C 489.43243408203125 264.07000732421875 489.6957702636719 263.51666259765625 489.6957702636719 262.8900146484375 C 489.6957702636719 261.96331787109375 489.45245361328125 261.17999267578125 488.9657897949219 260.5400085449219 C 488.4724426269531 259.8933410644531 487.84912109375 259.57000732421875 487.0957946777344 259.57000732421875 ZM 499.6946716308594 266.8299865722656 L 495.1546630859375 266.8299865722656 L 495.1546630859375 264.260009765625 L 499.6946716308594 264.260009765625 L 499.6946716308594 259.69000244140625 L 502.2546691894531 259.69000244140625 L 502.2546691894531 264.260009765625 L 506.794677734375 264.260009765625 L 506.794677734375 266.8299865722656 L 502.2546691894531 266.8299865722656 L 502.2546691894531 271.3399963378906 L 499.6946716308594 271.3399963378906 L 499.6946716308594 266.8299865722656 Z" transform="matrix(19.571218490600586, 0, 0, 19.571218490600586, -8948.6376953125, -4911.884765625)" style="fill: #000; white-space: pre; color: rgb(51, 51, 51);" />
	</symbol>

</svg>